<?xml version="1.0" encoding="utf-8"?>
<!-- Generator: Adobe Illustrator 16.0.0, SVG Export Plug-In . SVG Version: 6.00 Build 0)  -->
<!DOCTYPE svg PUBLIC "-//W3C//DTD SVG 1.1//EN" "http://www.w3.org/Graphics/SVG/1.1/DTD/svg11.dtd">
<svg version="1.1" id="Layer_1" xmlns="http://www.w3.org/2000/svg" xmlns:xlink="http://www.w3.org/1999/xlink" x="0px" y="0px"
	 width="117.072px" height="115.925px" viewBox="0 0 117.072 115.925" enable-background="new 0 0 117.072 115.925"
	 xml:space="preserve">
<g>
	<path fill="#DFE0E3" d="M57.695,115.646c11.348,0.303,28.125,0.541,35.713-0.379c12.064-1.463,10.382-28.111,11.513-38.754
		c0.261-2.453,3.137-20.03,3.137-20.249c17.482-0.219,4.152-14.767,4.152-14.767L73.485,7.588c0,0-7.299-7.588-15.429-7.588h0.96
		c-8.13,0-15.429,7.588-15.429,7.588L4.863,41.582c0,0-13.331,14.506,4.152,14.725c0,0.219,2.876,17.775,3.137,20.228
		c1.131,10.644-0.552,37.281,11.513,38.743c7.588,0.92,24.365,0.678,35.714,0.375"/>
</g>
</svg>
